<svg width="15" height="20" viewBox="0 0 15 20" fill="none" xmlns="http://www.w3.org/2000/svg">
<g clip-path="url(#clip0_28_1238)">
<path fill-rule="evenodd" clip-rule="evenodd" d="M0 15.1111V0H14.5455V15.1111C14.5443 16.1328 13.9389 17.108 12.9226 17.5486L7.27273 20L1.62287 17.5486C0.606509 17.108 0.00113719 16.1328 0 15.1111ZM0.220386 15V0.217391H14.3251V15C14.324 15.9995 13.7369 16.9535 12.7514 17.3845L7.27273 19.7826L1.79408 17.3845C0.808517 16.9535 0.221496 15.9995 0.220386 15Z" fill="white"/>
<path d="M7.27278 1.30434C6.86197 1.76419 6.61162 2.36614 6.61162 3.02683C6.63596 4.47752 6.81634 5.92526 6.83201 7.37551C6.86462 8.72711 6.45363 9.99658 5.95391 11.235C5.78739 11.5772 5.60728 11.9121 5.42705 12.2474L4.89674 12.1421C4.41958 12.0479 4.10919 11.5902 4.20459 11.1194C4.28807 10.7075 4.65556 10.4215 5.06548 10.4196L5.25831 10.44L4.82787 6.89308C4.68718 5.31363 3.86126 3.9282 2.64468 3.02683C2.43561 2.87193 2.2141 2.73032 1.98352 2.60555V15.2031H4.93118C5.15158 16.3835 5.81005 17.4119 6.73559 18.1181C6.95574 18.2678 7.14015 18.4652 7.27278 18.6956C7.40541 18.4652 7.58982 18.2678 7.80997 18.1181C8.7355 17.4119 9.39398 16.3835 9.61438 15.2031H12.562V2.60555C12.3315 2.73032 12.1099 2.87193 11.9009 3.02683C10.6843 3.9282 9.85837 5.31363 9.71768 6.89308L9.28724 10.44L9.48008 10.4196C9.88999 10.4215 10.2575 10.7075 10.341 11.1194C10.4364 11.5902 10.126 12.0479 9.64881 12.1421L9.11851 12.2474C8.93828 11.9121 8.75816 11.5772 8.59165 11.235C8.09193 9.99658 7.68094 8.72711 7.71355 7.37551C7.72921 5.92526 7.90959 4.47752 7.93393 3.02683C7.93393 2.36614 7.68359 1.76419 7.27278 1.30434ZM2.86506 4.41977C3.43554 5.08032 3.8184 5.90347 3.93256 6.80813L4.28724 9.7333C3.83561 9.95513 3.49323 10.3621 3.36437 10.8544H2.86506V4.41977ZM11.6805 4.41977V10.8544H11.1812C11.0523 10.3621 10.7099 9.95513 10.2583 9.7333L10.613 6.80813C10.7272 5.90347 11.11 5.08032 11.6805 4.41977ZM7.27278 10.3007C7.50958 11.0648 7.83537 11.7904 8.24041 12.4648C7.85515 12.5803 7.51985 12.8049 7.27278 13.1069C7.0257 12.8049 6.6904 12.5803 6.30515 12.4648C6.71019 11.7904 7.03598 11.0648 7.27278 10.3007ZM2.86506 11.7242H3.36437C3.5218 12.3244 3.99677 12.7987 4.6006 12.9642L5.02415 13.0594C4.91074 13.465 4.84853 13.8924 4.84853 14.3334H2.86506V11.7242ZM11.1812 11.7242H11.6805V14.3334H9.69702C9.69702 13.8924 9.63481 13.465 9.5214 13.0594L9.94495 12.9642C10.5488 12.7987 11.0238 12.3244 11.1812 11.7242ZM5.88504 13.2598C6.4198 13.3344 6.83201 13.7853 6.83201 14.3334H5.73008C5.73008 13.9606 5.78605 13.6013 5.88504 13.2598ZM8.66052 13.2598C8.7595 13.6013 8.81548 13.9606 8.81548 14.3334H7.71355C7.71355 13.7853 8.12575 13.3344 8.66052 13.2598ZM5.82994 15.2031H6.83201V17.0343C6.3457 16.5327 5.99242 15.9029 5.82994 15.2031ZM7.71355 15.2031H8.71561C8.55313 15.9029 8.19986 16.5327 7.71355 17.0343V15.2031Z" fill="white"/>
</g>
<defs>
<clipPath id="clip0_28_1238">
<rect width="14.5455" height="20" fill="white"/>
</clipPath>
</defs>
</svg>
