<svg width="40" height="40" viewBox="0 0 40 40" fill="none" xmlns="http://www.w3.org/2000/svg">
<g clip-path="url(#clip0_26_122)">
<path d="M34.4511 5.81211C33.849 6.07375 33.1733 6.21266 32.4733 6.21266C31.7679 6.21266 31.0879 6.0718 30.4831 5.80664C30.2805 6.16625 29.9062 6.39094 29.4937 6.40203C29.6261 7.95187 30.9251 9.16867 32.5092 9.16867C34.0929 9.16867 35.3918 7.95242 35.5247 6.40305C35.0158 6.4032 34.6533 6.16672 34.4511 5.81211Z" fill="white"/>
<path d="M31.6988 27.7268C30.5876 28.1889 29.344 27.466 29.186 26.2812C29.1291 25.8544 28.7324 22.8779 28.6852 22.5237L28.5157 22.4083C28.5157 22.4083 28.5022 22.2112 28.5022 38.144C28.5022 39.1691 29.3332 40.0001 30.3583 40.0001C31.3834 40.0001 32.2144 39.1691 32.2144 38.144V27.5124L31.6988 27.7268Z" fill="white"/>
<path d="M39.9609 13.5729C39.9511 11.6291 38.3617 10.0479 36.4181 10.0479C35.7598 10.0479 30.6133 10.0479 29.9436 10.0479C30.2631 10.8162 32.4373 16.0445 32.7809 16.8707C32.9458 17.2673 32.9464 17.7046 32.7826 18.1018C32.7736 18.1236 32.7633 18.1444 32.7534 18.1656C33.7208 19.0634 33.9775 20.5069 33.3713 21.6861C33.8273 22.7772 34.116 23.4676 34.5702 24.5539C34.957 25.4842 34.5148 26.5557 33.5846 26.9426L32.7648 27.2835V38.1439C32.7648 39.1691 33.5959 40 34.6209 40C35.646 40 36.477 39.1691 36.477 38.1439C36.477 37.3081 36.477 16.9528 36.477 13.5894C36.477 13.4818 36.5641 13.3944 36.6717 13.3942C36.7794 13.394 36.8669 13.4808 36.8675 13.5885C36.8902 18.0848 36.8863 15.9947 36.8814 22.9815C36.8808 23.8357 37.5728 24.5288 38.4269 24.5293C38.4274 24.5293 38.4276 24.5293 38.4281 24.5293C39.2818 24.5293 39.9742 23.8375 39.9748 22.9837C39.9798 15.9861 39.9836 18.0805 39.9609 13.5729Z" fill="white"/>
<path d="M31.9211 17.2283L26.7206 4.72258L27.2678 4.49508C27.6132 4.35149 27.7767 3.95508 27.633 3.60977C27.4894 3.26438 27.093 3.10094 26.7477 3.24454L26.2005 3.47204L25.8101 2.53305C25.6665 2.18766 25.2701 2.02423 24.9248 2.16774C24.5794 2.31133 24.4158 2.70774 24.5594 3.05313L27.1514 9.28585C26.964 9.08359 26.6641 9.00827 26.3949 9.12023C26.0495 9.26382 25.8861 9.66023 26.0296 10.0056C26.2905 10.6331 27.8698 14.4308 28.0829 14.9434L31.965 17.5878C31.9826 17.47 31.9701 17.3461 31.9211 17.2283Z" fill="white"/>
<path d="M33.7105 24.9114L32.7177 22.5367C31.9168 23.2588 30.758 23.5048 29.7031 23.1118L30.1092 26.1581C30.1872 26.7429 30.7994 27.0923 31.3413 26.867L33.2273 26.0827C33.6841 25.8927 33.9004 25.3683 33.7105 24.9114Z" fill="white"/>
<path d="M31.6057 19.0567L27.0702 15.9672L27.2814 15.5954L25.7781 11.9802C24.5847 14.0798 24.644 13.9753 23.6761 15.6783C23.278 16.3787 23.4841 17.2673 24.15 17.7208L29.8644 21.6133C30.5707 22.0943 31.5328 21.9114 32.0135 21.2057C32.4943 20.4997 32.3118 19.5376 31.6057 19.0567Z" fill="white"/>
<path d="M36.2001 5.18679C36.0728 4.49984 35.7597 2.80477 35.7597 2.7418C35.7597 1.33915 34.2884 0.202118 32.4735 0.202118C30.7415 0.202118 29.3236 1.23782 29.1975 2.55125H29.1873L28.7285 5.18968C28.7028 5.33726 28.8165 5.47203 28.9658 5.47203H29.4623C29.5516 5.47203 29.6337 5.42257 29.6754 5.34351L30.1155 4.50976C30.7127 4.98539 31.5482 5.2814 32.4735 5.2814C33.3913 5.2814 34.2208 4.99031 34.8169 4.52148L35.2568 5.34453C35.2986 5.42297 35.3804 5.47187 35.4693 5.47187H35.9633C36.1137 5.47195 36.2277 5.33539 36.2001 5.18679Z" fill="white"/>
<path d="M11.8729 7.43905C10.9393 7.43921 9.95285 7.20288 9.14551 6.7103C9.13605 6.96233 9.09113 7.21366 9.01074 7.4571C9.3773 8.69139 10.5196 9.59186 11.8728 9.59186C13.5374 9.59186 14.8947 8.22632 14.857 6.53882C14.0214 7.14569 12.9062 7.43905 11.8729 7.43905Z" fill="white"/>
<path d="M19.2223 13.9357C19.2126 12.0186 17.6451 10.4589 15.728 10.4589C11.3161 10.4589 9.24656 10.4448 8.0943 10.4522L5.07743 10.6727L7.61477 7.57211C8.14836 6.92016 8.05227 5.95899 7.40032 5.42539C6.74837 4.89196 5.78727 4.98782 5.2536 5.63985L0.369236 11.6086C-0.492325 12.6615 0.357596 14.2332 1.70822 14.0919C3.11337 13.9448 7.92079 13.5097 7.92079 13.5097C7.92079 13.5097 7.92079 37.3314 7.92079 38.1691C7.92079 39.1801 8.74039 39.9996 9.75133 39.9996C10.7623 39.9996 11.582 39.18 11.582 38.1691V24.3504H12.1249V38.1694C12.1249 39.1804 12.9445 39.9999 13.9555 39.9999C14.9666 39.9999 15.7861 39.1803 15.7861 38.1694C15.7861 31.8677 15.763 20.4793 15.7619 13.952C15.7619 13.8392 15.8532 13.7476 15.966 13.7473C16.0788 13.7469 16.1706 13.838 16.1712 13.9509C16.203 20.2573 16.1971 18.0068 16.1971 23.8172C16.1971 24.6597 16.8801 25.3426 17.7226 25.3426C18.5651 25.3426 19.248 24.6597 19.248 23.8172C19.2482 17.9983 19.254 20.2519 19.2223 13.9357Z" fill="white"/>
<path d="M14.8336 1.0025C13.9929 0.356093 12.9415 0 11.8729 0C10.8039 0 9.75217 0.356093 8.91163 1.00258C8.22843 1.52804 7.60522 2.35453 7.60522 3.21007C7.60522 4.0539 8.13351 4.53202 8.93725 4.78913C8.93725 5.53702 10.3262 6.35374 11.8729 6.35374C13.4047 6.35374 14.8073 5.54436 14.8073 4.78944C15.6154 4.53116 16.1404 4.05155 16.1404 3.20992C16.1404 2.35414 15.5171 1.52797 14.8336 1.0025ZM11.8729 5.16179C11.5986 5.16179 11.2919 4.71843 11.2919 4.12515C11.2919 3.53179 11.5986 3.08843 11.8729 3.08843C12.1472 3.08843 12.4539 3.53171 12.4539 4.12515C12.454 4.71843 12.1471 5.16179 11.8729 5.16179ZM14.3131 3.73007H13.2234C13.1046 2.98249 12.602 2.28757 11.873 2.28757C11.2022 2.28757 10.6544 2.90062 10.5226 3.73007H9.43241C9.42569 3.72835 9.41858 3.72687 9.41186 3.72515C8.76218 3.55382 8.76218 3.33023 8.76218 3.21007C8.7621 2.65929 9.35217 2.08296 9.83569 1.76828C10.3817 1.41304 11.0937 1.15679 11.873 1.15679C12.6522 1.15679 13.3644 1.41304 13.9104 1.76836C14.5719 2.19867 14.9837 2.77023 14.9837 3.20999C14.9836 3.52351 14.642 3.6457 14.3131 3.73007Z" fill="white"/>
</g>
<defs>
<clipPath id="clip0_26_122">
<rect width="40" height="40" fill="white"/>
</clipPath>
</defs>
</svg>
